<svg width="14" height="9" viewBox="0 0 14 9" fill="none" xmlns="http://www.w3.org/2000/svg">
<path d="M11.888 2.11004C11.8043 2.03953 11.6984 2.00085 11.589 2.00085C11.4796 2.00085 11.3737 2.03953 11.29 2.11004L7 6.11004L2.71 2.11004C2.62633 2.03953 2.52042 2.00085 2.411 2.00085C2.30158 2.00085 2.19568 2.03953 2.112 2.11004C1.962 2.23604 1.962 2.47304 2.112 2.61804L6.68 6.89104C6.765 6.96404 6.893 7.00004 7 7.00004C7.107 7.00004 7.235 6.98204 7.32 6.89004L11.888 2.61804C12.038 2.47304 12.038 2.23604 11.888 2.10904V2.11004Z" fill="#242627" stroke="#242627" stroke-width="0.5"/>
</svg>
