<svg width="24" height="24" viewBox="0 0 24 24" fill="none" xmlns="http://www.w3.org/2000/svg">
<path d="M9.21994 5.87353C9.21994 6.37732 9.2388 8.84211 9.2388 8.84211H7V12L9.21994 11.9942L9.2388 22H13.7164V12L16.5841 11.9942C16.5841 11.9942 16.8007 10.6074 16.9347 8.84211C16.5499 8.84211 13.7164 8.84211 13.7164 8.84211C13.7164 8.84211 13.6436 6.65532 13.6436 6.31221C13.6436 5.96821 14.124 5.50532 14.599 5.50532H17C17 5.0469 17 3.46289 17 2C15.7631 2 14.3561 2 13.7355 2C9.11097 2 9.21994 5.37021 9.21994 5.87353Z" fill="#79977C"/>
</svg>
