<svg width="24" height="24" viewBox="0 0 24 24" fill="none" xmlns="http://www.w3.org/2000/svg">
<path fill-rule="evenodd" clip-rule="evenodd" d="M4 3C3.73478 3 3.48043 3.10536 3.29289 3.29289C3.10536 3.48043 3 3.73478 3 4C3 6.023 3.424 8.734 4.583 11.399C5.983 14.619 8.478 17.819 12.605 19.593C14.672 20.483 17.121 21 20 21C20.2652 21 20.5196 20.8946 20.7071 20.7071C20.8946 20.5196 21 20.2652 21 20V16C20.9999 15.7769 20.9253 15.5603 20.788 15.3845C20.6506 15.2088 20.4584 15.084 20.242 15.03L16.242 14.03C16.0579 13.984 15.8645 13.9914 15.6844 14.0513C15.5043 14.1111 15.345 14.221 15.225 14.368L12.716 17.441C9.822 15.998 7.92 13.706 6.725 11.267L9.65 8.76C9.79115 8.6392 9.89586 8.48146 9.95239 8.30447C10.0089 8.12749 10.015 7.93826 9.97 7.758L8.97 3.758C8.91602 3.54157 8.79122 3.3494 8.61546 3.21205C8.4397 3.0747 8.22306 3.00006 8 3H4Z" fill="#79977C"/>
</svg>
